<?xml version="1.0" standalone="no"?>
<!DOCTYPE svg PUBLIC "-//W3C//DTD SVG 20010904//EN"
 "http://www.w3.org/TR/2001/REC-SVG-20010904/DTD/svg10.dtd">
<svg version="1.0" xmlns="http://www.w3.org/2000/svg"
 width="845.000000pt" height="845.000000pt" viewBox="0 0 845.000000 845.000000"
 preserveAspectRatio="xMidYMid meet">
<metadata>
Created by potrace 1.11, written by Peter Selinger 2001-2013
</metadata>
<g transform="translate(0.000000,845.000000) scale(0.100000,-0.100000)"
fill="#000000" stroke="none">
<path d="M3999 8426 c-2 -2 -47 -6 -99 -10 -221 -14 -498 -61 -740 -124 -119
-32 -300 -86 -335 -102 -11 -5 -81 -32 -155 -61 -403 -156 -838 -421 -1195
-730 -500 -433 -927 -1036 -1150 -1624 -15 -38 -31 -79 -36 -90 -22 -48 -91
-272 -123 -397 -35 -136 -40 -156 -51 -213 -3 -16 -10 -52 -15 -80 -25 -132
-44 -273 -57 -430 -16 -180 -7 -705 13 -808 2 -12 6 -42 9 -67 5 -47 43 -274
50 -307 2 -10 12 -52 21 -93 36 -168 121 -437 202 -640 66 -166 203 -441 281
-565 13 -22 29 -49 35 -60 30 -55 206 -304 290 -409 389 -488 867 -873 1434
-1155 239 -120 557 -238 792 -296 114 -28 177 -42 224 -51 16 -2 32 -6 35 -8
3 -2 28 -7 54 -10 26 -4 70 -11 97 -16 27 -5 78 -12 112 -16 35 -3 74 -8 88
-10 153 -25 777 -25 908 1 13 2 51 7 85 10 34 3 69 8 77 10 8 2 35 7 60 10 25
3 52 8 61 11 10 3 30 7 45 9 198 29 632 158 811 240 17 8 34 15 37 15 18 0
329 153 436 215 36 21 74 43 85 49 11 6 40 24 65 40 567 361 999 796 1355
1361 88 139 257 474 320 630 95 239 211 641 239 827 3 21 9 55 12 75 3 21 7
45 9 53 2 8 7 42 11 75 3 33 8 74 10 90 13 107 19 251 19 460 0 267 -6 363
-40 610 -14 103 -36 216 -71 365 -14 58 -27 112 -29 120 -58 244 -270 759
-392 952 -12 21 -23 40 -23 42 0 5 -78 133 -125 206 -36 54 -173 247 -196 275
-9 11 -52 63 -95 115 -210 256 -532 554 -794 736 -107 74 -178 121 -225 149
-27 16 -58 34 -67 40 -188 114 -467 247 -683 325 -49 18 -97 35 -105 38 -8 3
-17 6 -20 7 -3 1 -50 15 -105 33 -160 50 -414 109 -538 126 -18 3 -63 9 -102
15 -38 5 -99 13 -135 17 -36 3 -78 8 -95 11 -37 5 -581 13 -586 9z"/>
</g>
</svg>
